<svg width="295" height="324" viewBox="0 0 295 324" fill="none" xmlns="http://www.w3.org/2000/svg">
<path d="M119.408 8.00845C122.481 6.06978 128.652 3.39789 133.093 2.05573C138.778 0.353176 143.767 -0.230911 149.888 0.0797736C154.678 0.315894 161.67 1.60834 165.439 2.93808C169.209 4.26781 174.807 7.0764 177.88 9.17663C180.953 11.2769 203.931 30.5269 228.937 51.9642C253.943 73.4139 276.424 93.1859 278.899 95.9199C281.387 98.6539 285.132 104.383 287.247 108.658C289.362 112.933 291.999 119.644 293.107 123.571C294.848 129.76 295.097 139.292 294.973 195.028C294.848 249.51 294.537 259.912 292.957 263.068C291.9 265.181 289.2 267.604 286.737 268.661C283.415 270.077 281.35 270.227 278.028 269.282C275.229 268.487 272.803 266.598 271.211 264C268.86 260.123 268.76 257.501 268.735 199.689C268.71 164.308 268.175 136.595 267.441 132.581C266.745 128.815 264.829 122.949 263.187 119.532C261.221 115.456 257.053 110.51 251.069 105.178C246.056 100.704 225.267 82.809 204.889 65.4106C184.498 48.0123 164.904 32.1549 161.346 30.1665C156.308 27.3579 153.347 26.5626 148.022 26.6123C144.252 26.6496 139.226 27.4822 136.825 28.4515C134.424 29.4209 113.996 45.8126 91.4163 64.8638C68.8363 83.9026 47.0027 102.382 42.8972 105.912C37.9706 110.149 34.1637 114.834 27.9682 126.988L27.3462 193.537C26.7739 254.158 26.5251 260.372 24.547 263.441C23.3527 265.281 20.4042 267.642 18.0156 268.661C15.627 269.68 12.6785 270.189 11.4842 269.792C10.2898 269.382 7.9883 268.412 6.37099 267.617C4.75369 266.822 2.65119 264.634 1.70569 262.758C0.299881 259.974 -0.0235803 247.397 0.00130126 195.028C0.0137421 140.708 0.324762 129.561 1.96695 123.26C3.03686 119.159 5.68675 112.498 7.85145 108.459C10.0286 104.408 14.0345 98.5918 16.7715 95.5098C19.5085 92.4402 26.7864 85.6921 32.9446 80.5099C39.1028 75.3277 59.8167 57.6932 78.9755 41.3139C98.1344 24.9346 116.335 9.94713 119.408 8.00845Z" fill="#0250FA"/>
<path fill-rule="evenodd" clip-rule="evenodd" d="M150.51 134.246C184.212 134.42 192.896 134.805 195.919 136.272C197.972 137.266 201.331 139.304 203.384 140.795C205.436 142.287 208.372 145.94 209.903 148.91C211.433 151.893 213.809 158.38 215.19 163.339C216.571 168.297 218.387 172.398 219.246 172.473C220.104 172.535 222.754 172.498 225.155 172.386C227.892 172.249 230.778 173.131 232.93 174.747C235.058 176.35 236.352 178.488 236.352 180.426C236.352 182.377 235.07 184.478 232.93 186.056C231.052 187.448 228.34 188.566 226.922 188.541C225.491 188.529 223.948 188.778 223.5 189.125C223.04 189.473 224.657 192.68 227.096 196.271C229.522 199.863 232.035 204.747 232.682 207.145C233.329 209.544 233.851 222.816 233.863 261.826L230.231 265.554C226.735 269.133 226.138 269.282 215.613 269.332C206.917 269.382 204.006 268.922 201.679 267.157C199.664 265.641 198.482 263.168 197.163 253.748L148.022 253.45C110.015 253.226 98.6693 253.499 97.9726 254.692C97.4625 255.538 97.0395 258.048 97.0395 260.272C97.0147 263.23 96.094 264.995 93.5934 266.834C90.7569 268.934 88.331 269.357 79.2865 269.32C69.5951 269.282 68.0276 268.959 61.5584 263.292L61.21 238.015C60.9363 218.616 61.2847 211.296 62.6905 206.524C63.6858 203.106 66.2237 198.21 68.3262 195.65C70.4162 193.09 71.8594 190.43 71.511 189.747C71.1627 189.063 69.7693 188.504 68.4008 188.504C67.0323 188.504 64.793 187.945 63.4245 187.261C62.056 186.578 60.3267 184.763 59.5803 183.222C58.5601 181.122 58.6348 179.556 59.8913 176.947C60.8119 175.02 62.678 173.156 64.0465 172.783C65.415 172.411 68.6123 172.299 71.1502 172.535C73.6757 172.771 76.2634 172.411 76.8854 171.727C77.5075 171.044 78.9631 166.57 80.1325 161.785C81.2895 157.001 83.6035 150.712 85.2705 147.804C87.2113 144.437 90.4459 141.305 94.2155 139.142C97.4625 137.291 102.078 135.377 104.479 134.905C106.868 134.42 127.582 134.134 150.51 134.246ZM97.8606 155.161C96.7285 156.752 94.3897 163.376 92.6479 169.863C90.9062 176.35 89.2143 182.651 88.8908 183.844C88.3434 185.894 91.7273 186.019 147.4 186.019C179.895 186.019 206.494 185.882 206.481 185.708C206.481 185.534 204.789 178.96 202.724 171.106C199.738 159.76 199 156.5 197 153L195 150.5L191.515 149.358C119.396 149.358 105.599 149.793 103.26 150.812C101.406 151.607 98.9803 153.571 97.8606 155.161ZM77.918 217.149C76.7859 219.163 75.8653 221.934 75.8653 223.301C75.8653 224.668 76.6366 227.327 77.5821 229.204C78.5276 231.08 80.767 233.317 82.5585 234.175C84.3499 235.032 87.5348 235.728 89.6497 235.728C92.2623 235.728 94.626 234.548 97.1142 232C99.9009 229.142 100.747 227.116 100.747 223.301C100.747 219.436 99.9134 217.497 97.0147 214.602C94.1657 211.756 92.1752 210.886 88.6171 210.911C86.0543 210.936 83.0561 211.52 81.9613 212.216C80.8665 212.912 79.0377 215.136 77.918 217.149ZM196.081 217.224C195.011 218.852 194.115 221.449 194.103 222.99C194.078 224.531 194.824 227.327 195.77 229.204C196.715 231.08 198.955 233.317 200.746 234.175C202.538 235.032 205.125 235.728 206.494 235.728C207.862 235.728 210.661 234.883 212.714 233.864C214.767 232.845 217.006 230.882 217.69 229.515C218.375 228.148 218.935 225.078 218.935 222.679C218.935 219.498 217.927 217.323 215.202 214.602C212.552 211.955 210.301 210.886 207.427 210.923C205.2 210.936 202.177 211.706 200.696 212.613C199.216 213.508 197.138 215.596 196.081 217.224Z" fill="#03193F" fill-opacity="0.98"/>
<path d="M13.7859 311.535C20.7403 305.719 31.8251 296.386 38.3938 290.781L50.3619 280.53L64.3578 280.529C71.5001 280.5 67.0001 280.5 78.5002 280.53C78.5002 281.213 68.6996 292.176 35.4329 323.99L18.3268 323.988C8.92153 323.975 2.00005 323.99 0.00012207 323.99C0.500055 323.49 13.2304 312 13.7859 311.535Z" fill="#23C731"/>
<path d="M238.193 303.147C216.5 280.53 216.55 280.977 216.5 280.53C222 280.5 239 280.5 243.816 280.53L254.702 289.526C260.686 294.497 271.895 303.868 279.609 310.342C287.5 317.5 288 318 294.5 323.99H259.989L238.193 303.147Z" fill="#23C731"/>
</svg>
